<svg xmlns="http://www.w3.org/2000/svg" xmlns:xlink="http://www.w3.org/1999/xlink" width="150" zoomAndPan="magnify" viewBox="0 0 112.5 101.999999" height="136" preserveAspectRatio="xMidYMid meet" version="1.0"><defs><filter x="0%" y="0%" width="100%" height="100%" id="bb7dade9bf"><feColorMatrix values="0 0 0 0 1 0 0 0 0 1 0 0 0 0 1 0 0 0 1 0" color-interpolation-filters="sRGB"/></filter><mask id="5feb3813fa"><g filter="url(#bb7dade9bf)"><rect x="-11.25" width="135" fill="#000000" y="-10.2" height="122.399999" fill-opacity="0.4"/></g></mask><clipPath id="709f18f849"><path d="M 1 1 L 92.753906 1 L 92.753906 92.753906 L 1 92.753906 Z M 1 1 " clip-rule="nonzero"/></clipPath><clipPath id="f2748e20f1"><rect x="0" width="94" y="0" height="94"/></clipPath></defs><g mask="url(#5feb3813fa)"><g transform="matrix(1, 0, 0, 1, 9, 4)"><g clip-path="url(#f2748e20f1)"><g clip-path="url(#709f18f849)"><path fill="#ffffff" d="M 1.117188 13.363281 C 1.121094 6.570312 6.628906 1.058594 13.421875 1.058594 C 19.539062 1.0625 24.613281 5.523438 25.566406 11.371094 C 32.207031 9.816406 39.472656 11.625 44.648438 16.800781 L 45.355469 17.511719 L 36.273438 26.585938 L 35.570312 25.878906 C 32.625 22.9375 27.847656 22.9375 24.898438 25.882812 C 21.941406 28.839844 21.945312 33.632812 24.882812 36.566406 L 26.660156 38.339844 L 35.738281 47.414062 L 45.34375 57.011719 L 36.273438 66.09375 L 26.660156 56.492188 L 17.578125 47.414062 L 15.808594 45.648438 C 10.320312 40.160156 8.621094 32.320312 10.699219 25.371094 C 5.214844 24.132812 1.117188 19.226562 1.117188 13.363281 Z M 27.734375 37.265625 L 36.816406 46.339844 L 46.421875 36.742188 L 55.503906 27.667969 L 57.277344 25.898438 C 60.234375 22.941406 65 22.945312 67.9375 25.882812 C 70.882812 28.828125 70.882812 33.609375 67.933594 36.554688 L 67.234375 37.257812 L 76.308594 46.339844 L 77.015625 45.628906 C 82.445312 40.195312 84.171875 32.464844 82.191406 25.566406 C 88.222656 24.773438 92.875 19.613281 92.875 13.363281 C 92.875 6.566406 87.367188 1.058594 80.570312 1.058594 C 74.347656 1.058594 69.207031 5.675781 68.378906 11.667969 C 61.457031 9.632812 53.667969 11.355469 48.199219 16.816406 L 46.429688 18.585938 L 37.347656 27.660156 Z M 82.414062 68.445312 C 84.039062 61.765625 82.234375 54.417969 77.015625 49.199219 L 75.234375 47.414062 L 66.160156 38.335938 L 56.578125 28.746094 L 47.496094 37.816406 L 57.085938 47.414062 L 66.160156 56.496094 L 67.933594 58.273438 C 70.894531 61.234375 70.886719 65.996094 67.953125 68.9375 C 65.003906 71.878906 60.226562 71.878906 57.277344 68.933594 L 56.578125 68.234375 L 47.503906 77.316406 L 48.199219 78.011719 C 53.726562 83.539062 61.640625 85.230469 68.625 83.078125 C 69.761719 88.703125 74.726562 92.929688 80.6875 92.929688 C 87.476562 92.929688 92.992188 87.425781 92.992188 80.628906 C 92.992188 74.417969 88.394531 69.28125 82.414062 68.445312 Z M 65.085938 57.574219 L 56.011719 48.492188 L 46.421875 58.089844 L 37.347656 67.167969 L 35.570312 68.949219 C 32.632812 71.886719 27.84375 71.890625 24.886719 68.9375 C 21.9375 65.984375 21.9375 61.210938 24.882812 58.261719 L 25.582031 57.566406 L 16.503906 48.492188 L 15.808594 49.183594 C 10.527344 54.460938 8.75 61.910156 10.464844 68.652344 C 5.039062 69.929688 1.003906 74.808594 1.003906 80.628906 C 1 87.425781 6.511719 92.929688 13.308594 92.929688 C 19.15625 92.929688 24.050781 88.855469 25.304688 83.386719 C 32.015625 85.050781 39.40625 83.269531 44.648438 78.027344 L 46.429688 76.246094 L 55.503906 67.164062 Z M 65.085938 57.574219 " fill-opacity="1" fill-rule="nonzero"/></g></g></g></g></svg>