<svg xmlns="http://www.w3.org/2000/svg" xmlns:xlink="http://www.w3.org/1999/xlink" width="150" zoomAndPan="magnify" viewBox="0 0 112.5 112.499997" height="150" preserveAspectRatio="xMidYMid meet" version="1.0"><defs><filter x="0%" y="0%" width="100%" height="100%" id="e0d70520a8"><feColorMatrix values="0 0 0 0 1 0 0 0 0 1 0 0 0 0 1 0 0 0 1 0" color-interpolation-filters="sRGB"/></filter><clipPath id="03f1a87df1"><path d="M 32 0.257812 L 77 0.257812 L 77 50 L 32 50 Z M 32 0.257812 " clip-rule="nonzero"/></clipPath><mask id="c11f8640b0"><g filter="url(#e0d70520a8)"><rect x="-24.75" width="162" fill="#000000" y="-29.749999" height="161.999996" fill-opacity="0.4"/></g></mask><clipPath id="abae7285da"><path d="M 0.0195312 0.328125 L 44.699219 0.328125 L 44.699219 49.71875 L 0.0195312 49.71875 Z M 0.0195312 0.328125 " clip-rule="nonzero"/></clipPath><clipPath id="db73231473"><rect x="0" width="45" y="0" height="50"/></clipPath><clipPath id="d734efa10d"><path d="M 60 52 L 110.390625 52 L 110.390625 101.804688 L 60 101.804688 Z M 60 52 " clip-rule="nonzero"/></clipPath><mask id="346c8f47e6"><g filter="url(#e0d70520a8)"><rect x="-24.75" width="162" fill="#000000" y="-29.749999" height="161.999996" fill-opacity="0.4"/></g></mask><clipPath id="68cd4c0d74"><path d="M 0.792969 0.167969 L 50.257812 0.167969 L 50.257812 49.636719 L 0.792969 49.636719 Z M 0.792969 0.167969 " clip-rule="nonzero"/></clipPath><clipPath id="4969b60496"><rect x="0" width="51" y="0" height="50"/></clipPath><clipPath id="72c3a9dd18"><path d="M 0.957031 52 L 46 52 L 46 101.804688 L 0.957031 101.804688 Z M 0.957031 52 " clip-rule="nonzero"/></clipPath><mask id="092a8f00f1"><g filter="url(#e0d70520a8)"><rect x="-24.75" width="162" fill="#000000" y="-29.749999" height="161.999996" fill-opacity="0.4"/></g></mask><clipPath id="44cc84403b"><path d="M 1 0.167969 L 45 0.167969 L 45 49.636719 L 1 49.636719 Z M 1 0.167969 " clip-rule="nonzero"/></clipPath><clipPath id="7d05bc95a2"><rect x="0" width="46" y="0" height="50"/></clipPath><clipPath id="8a299ffd8e"><rect x="0" width="111" y="0" height="102"/></clipPath></defs><g transform="matrix(1, 0, 0, 1, -0.000000000000000111, 5)"><g clip-path="url(#8a299ffd8e)"><g clip-path="url(#03f1a87df1)"><g mask="url(#c11f8640b0)"><g transform="matrix(1, 0, 0, 1, 32, -0.000000000000000888)"><g clip-path="url(#db73231473)"><g clip-path="url(#abae7285da)"><path fill="#ffffff" d="M 35.691406 15.121094 L 14.433594 15.121094 L 14.941406 20.050781 L 35.1875 20.050781 C 34.890625 24.371094 33.992188 33.523438 33.664062 37.6875 L 22.292969 40.886719 L 22.292969 40.898438 L 22.265625 40.910156 L 10.886719 36.90625 L 10.109375 27.449219 L 15.683594 27.449219 L 16.082031 32.535156 L 22.277344 34.84375 L 22.292969 34.84375 L 28.476562 32.625 L 29.113281 24.984375 L 9.859375 24.984375 C 9.765625 23.992188 8.570312 11.15625 8.359375 10.191406 L 36.191406 10.191406 C 36.035156 11.816406 35.875 13.488281 35.691406 15.121094 Z M 0.105469 0.328125 L 4.144531 45.070312 L 22.265625 49.636719 L 40.4375 44.976562 L 44.480469 0.328125 Z M 0.105469 0.328125 " fill-opacity="1" fill-rule="evenodd"/></g></g></g></g></g><g clip-path="url(#d734efa10d)"><g mask="url(#346c8f47e6)"><g transform="matrix(1, 0, 0, 1, 60, 52)"><g clip-path="url(#4969b60496)"><g clip-path="url(#68cd4c0d74)"><path fill="#ffffff" d="M 38.726562 45.78125 C 34.40625 45.78125 31.617188 43.722656 30.253906 41.03125 L 34.039062 38.835938 C 35.039062 40.464844 36.332031 41.660156 38.625 41.660156 C 40.550781 41.660156 41.78125 40.699219 41.78125 39.371094 C 41.78125 37.371094 39.113281 36.585938 37.230469 35.78125 C 33.875 34.351562 31.648438 32.558594 31.648438 28.769531 C 31.648438 25.28125 34.304688 22.625 38.460938 22.625 C 41.414062 22.625 43.542969 23.65625 45.070312 26.34375 L 41.449219 28.671875 C 40.652344 27.242188 39.789062 26.679688 38.460938 26.679688 C 37.097656 26.679688 36.234375 27.542969 36.234375 28.671875 C 36.234375 30.066406 37.097656 30.632812 39.09375 31.496094 C 43.273438 33.285156 46.433594 34.695312 46.433594 39.304688 C 46.433594 43.488281 43.144531 45.78125 38.726562 45.78125 Z M 28.015625 38.769531 C 28.015625 43.589844 25.046875 46.136719 20.925781 46.136719 C 17.203125 46.136719 14.976562 44.714844 13.878906 42.238281 L 13.8125 42.238281 L 17.597656 39.59375 C 18.328125 40.886719 18.988281 41.804688 20.582031 41.804688 C 22.109375 41.804688 23.066406 41.03125 23.066406 38.707031 L 23.066406 22.4375 L 28.015625 22.4375 Z M 0.792969 49.664062 L 50.289062 49.664062 L 50.289062 0.164062 L 0.792969 0.164062 Z M 0.792969 49.664062 " fill-opacity="1" fill-rule="evenodd"/></g></g></g></g></g><g clip-path="url(#72c3a9dd18)"><g mask="url(#092a8f00f1)"><g transform="matrix(1, 0, 0, 1, -0.000000000000000111, 52)"><g clip-path="url(#7d05bc95a2)"><g clip-path="url(#44cc84403b)"><path fill="#ffffff" d="M 44.996094 0.21875 L 40.878906 44.8125 L 23.042969 49.617188 L 5.203125 44.8125 L 1.085938 0.21875 Z M 36.699219 9.285156 L 9.109375 9.285156 L 9.773438 14.671875 L 23.769531 14.671875 L 23.027344 14.980469 L 10.257812 20.296875 L 10.679688 25.5625 L 23.027344 25.601562 L 29.640625 25.625 L 29.21875 32.640625 L 23.027344 34.386719 L 23.027344 34.378906 L 22.976562 34.394531 L 16.996094 32.882812 L 16.632812 28.527344 L 11.042969 28.527344 L 11.769531 36.9375 L 23.027344 40.265625 L 23.027344 40.261719 L 23.046875 40.265625 L 34.242188 37 L 35.691406 20.296875 L 22.996094 20.296875 L 23.027344 20.285156 L 36.15625 14.671875 Z M 36.699219 9.285156 " fill-opacity="1" fill-rule="nonzero"/></g></g></g></g></g></g></g></svg>