<svg xmlns="http://www.w3.org/2000/svg" xmlns:xlink="http://www.w3.org/1999/xlink" width="150" zoomAndPan="magnify" viewBox="0 0 112.5 101.999999" height="136" preserveAspectRatio="xMidYMid meet" version="1.0"><defs><filter x="0%" y="0%" width="100%" height="100%" id="4180b6e621"><feColorMatrix values="0 0 0 0 1 0 0 0 0 1 0 0 0 0 1 0 0 0 1 0" color-interpolation-filters="sRGB"/></filter><mask id="b9ee20ff9a"><g filter="url(#4180b6e621)"><rect x="-11.25" width="135" fill="#000000" y="-10.2" height="122.399999" fill-opacity="0.4"/></g></mask><clipPath id="9eedec65a4"><path d="M 0.226562 0.121094 L 101.777344 0.121094 L 101.777344 53.878906 L 0.226562 53.878906 Z M 0.226562 0.121094 " clip-rule="nonzero"/></clipPath><clipPath id="c165cad7b5"><rect x="0" width="102" y="0" height="54"/></clipPath></defs><g mask="url(#b9ee20ff9a)"><g transform="matrix(1, 0, 0, 1, 5, 24)"><g clip-path="url(#c165cad7b5)"><g clip-path="url(#9eedec65a4)"><path fill="#ffffff" d="M 79.769531 20.652344 C 80.507812 21.46875 80.683594 22.871094 80.296875 24.855469 C 79.894531 26.921875 79.121094 28.398438 77.972656 29.28125 C 76.824219 30.167969 75.074219 30.609375 72.730469 30.609375 L 69.1875 30.609375 L 71.363281 19.429688 L 75.347656 19.429688 C 77.5625 19.429688 79.035156 19.835938 79.769531 20.652344 Z M 29.929688 19.429688 L 25.941406 19.429688 L 23.769531 30.609375 L 27.308594 30.609375 C 29.652344 30.609375 31.402344 30.167969 32.550781 29.28125 C 33.699219 28.398438 34.472656 26.921875 34.875 24.855469 C 35.261719 22.871094 35.085938 21.46875 34.347656 20.652344 C 33.613281 19.835938 32.140625 19.429688 29.929688 19.429688 Z M 101.675781 27 C 101.675781 41.722656 78.988281 53.65625 51 53.65625 C 23.015625 53.65625 0.324219 41.722656 0.324219 27 C 0.324219 12.277344 23.015625 0.34375 51 0.34375 C 78.988281 0.34375 101.675781 12.277344 101.675781 27 Z M 39.605469 28.839844 C 40.207031 27.761719 40.636719 26.570312 40.890625 25.265625 C 41.507812 22.097656 41.042969 19.632812 39.496094 17.863281 C 37.953125 16.097656 35.5 15.214844 32.132812 15.214844 L 20.941406 15.214844 L 15.75 41.925781 L 21.570312 41.925781 L 22.949219 34.824219 L 27.933594 34.824219 C 30.132812 34.824219 31.941406 34.59375 33.363281 34.132812 C 34.785156 33.671875 36.074219 32.894531 37.234375 31.808594 C 38.210938 30.910156 39 29.921875 39.605469 28.839844 Z M 60.085938 34.824219 L 62.503906 22.394531 C 62.996094 19.863281 62.625 18.035156 61.398438 16.90625 C 60.167969 15.777344 57.9375 15.214844 54.699219 15.214844 L 49.558594 15.214844 L 50.9375 8.109375 L 45.164062 8.109375 L 39.972656 34.824219 L 45.746094 34.824219 L 48.71875 19.519531 L 53.335938 19.519531 C 54.8125 19.519531 55.777344 19.765625 56.230469 20.253906 C 56.683594 20.742188 56.78125 21.660156 56.519531 23.003906 L 54.222656 34.824219 Z M 84.917969 17.863281 C 83.375 16.097656 80.917969 15.214844 77.554688 15.214844 L 66.363281 15.214844 L 61.171875 41.925781 L 66.992188 41.925781 L 68.371094 34.824219 L 73.355469 34.824219 C 75.554688 34.824219 77.363281 34.59375 78.785156 34.132812 C 80.203125 33.671875 81.496094 32.894531 82.65625 31.808594 C 83.632812 30.910156 84.421875 29.921875 85.027344 28.84375 C 85.628906 27.761719 86.058594 26.570312 86.3125 25.265625 C 86.925781 22.097656 86.464844 19.632812 84.917969 17.863281 Z M 84.917969 17.863281 " fill-opacity="1" fill-rule="nonzero"/></g></g></g></g></svg>