<svg xmlns="http://www.w3.org/2000/svg" xmlns:xlink="http://www.w3.org/1999/xlink" width="150" zoomAndPan="magnify" viewBox="0 0 112.5 101.999999" height="136" preserveAspectRatio="xMidYMid meet" version="1.0"><defs><filter x="0%" y="0%" width="100%" height="100%" id="3ceae9a602"><feColorMatrix values="0 0 0 0 1 0 0 0 0 1 0 0 0 0 1 0 0 0 1 0" color-interpolation-filters="sRGB"/></filter><mask id="d5baa8bc15"><g filter="url(#3ceae9a602)"><rect x="-11.25" width="135" fill="#000000" y="-10.2" height="122.399999" fill-opacity="0.4"/></g></mask><clipPath id="85c60aefe6"><path d="M 0.292969 0.667969 L 81.769531 0.667969 L 81.769531 93.257812 L 0.292969 93.257812 Z M 0.292969 0.667969 " clip-rule="nonzero"/></clipPath><clipPath id="66417bb5af"><rect x="0" width="82" y="0" height="94"/></clipPath></defs><g mask="url(#d5baa8bc15)"><g transform="matrix(1, 0, 0, 1, 15, 4)"><g clip-path="url(#66417bb5af)"><g clip-path="url(#85c60aefe6)"><path fill="#ffffff" d="M 60.007812 14.171875 C 61.527344 15.6875 63.246094 17.402344 63.246094 17.402344 C 63.246094 17.402344 70.332031 17.929688 70.664062 17.957031 C 71.003906 17.988281 71.410156 18.246094 71.472656 18.710938 C 71.535156 19.175781 81.535156 87.132812 81.535156 87.132812 L 56.996094 92.46875 Z M 56.242188 11.597656 C 56.054688 11.621094 55.890625 11.65625 55.777344 11.691406 C 55.71875 11.710938 54.703125 12.023438 53.023438 12.546875 C 51.378906 7.792969 48.476562 3.421875 43.375 3.421875 C 43.234375 3.421875 43.085938 3.429688 42.941406 3.4375 C 41.488281 1.507812 39.691406 0.667969 38.140625 0.667969 C 26.25 0.667969 20.566406 15.609375 18.785156 23.199219 C 14.164062 24.636719 10.882812 25.660156 10.464844 25.792969 C 7.882812 26.605469 7.800781 26.6875 7.464844 29.128906 C 7.207031 30.980469 0.460938 83.425781 0.460938 83.425781 L 53.042969 93.328125 L 53.101562 93.316406 Z M 42.554688 15.285156 C 42.554688 15.46875 42.550781 15.636719 42.550781 15.804688 C 39.65625 16.703125 36.511719 17.683594 33.359375 18.664062 C 35.128906 11.800781 38.445312 8.488281 41.347656 7.234375 C 42.074219 9.078125 42.554688 11.722656 42.554688 15.285156 Z M 37.8125 3.875 C 38.328125 3.875 38.84375 4.050781 39.335938 4.390625 C 35.527344 6.191406 31.441406 10.734375 29.71875 19.796875 C 27.195312 20.582031 24.734375 21.347656 22.453125 22.058594 C 24.472656 15.144531 29.269531 3.875 37.8125 3.875 Z M 39.859375 44.28125 C 39.859375 44.28125 36.78125 42.632812 33.011719 42.632812 C 27.476562 42.632812 27.199219 46.121094 27.199219 46.996094 C 27.199219 51.796875 39.640625 53.632812 39.640625 64.867188 C 39.640625 73.707031 34.0625 79.398438 26.539062 79.398438 C 17.511719 79.398438 12.894531 73.753906 12.894531 73.753906 L 15.3125 65.730469 C 15.3125 65.730469 20.058594 69.824219 24.0625 69.824219 C 26.675781 69.824219 27.742188 67.753906 27.742188 66.242188 C 27.742188 59.984375 17.535156 59.703125 17.535156 49.421875 C 17.535156 40.769531 23.714844 32.394531 36.191406 32.394531 C 40.996094 32.394531 43.375 33.777344 43.375 33.777344 Z M 45.667969 14.832031 C 45.667969 14.519531 45.671875 14.207031 45.671875 13.871094 C 45.671875 10.914062 45.261719 8.535156 44.609375 6.652344 C 47.238281 6.980469 48.988281 9.988281 50.117188 13.449219 C 48.796875 13.859375 47.296875 14.328125 45.667969 14.832031 Z M 45.667969 14.832031 " fill-opacity="1" fill-rule="evenodd"/></g></g></g></g></svg>