<svg xmlns="http://www.w3.org/2000/svg" xmlns:xlink="http://www.w3.org/1999/xlink" width="150" zoomAndPan="magnify" viewBox="0 0 112.5 101.999999" height="136" preserveAspectRatio="xMidYMid meet" version="1.0"><defs><filter x="0%" y="0%" width="100%" height="100%" id="a9dfddfb81"><feColorMatrix values="0 0 0 0 1 0 0 0 0 1 0 0 0 0 1 0 0 0 1 0" color-interpolation-filters="sRGB"/></filter><clipPath id="7c447acac6"><path d="M 16 0.226562 L 95 0.226562 L 95 101.773438 L 16 101.773438 Z M 16 0.226562 " clip-rule="nonzero"/></clipPath><mask id="955d4d0963"><g filter="url(#a9dfddfb81)"><rect x="-11.25" width="135" fill="#000000" y="-10.2" height="122.399999" fill-opacity="0.4"/></g></mask><clipPath id="34fc78f6f2"><path d="M 2 0.597656 L 78 0.597656 L 78 101.402344 L 2 101.402344 Z M 2 0.597656 " clip-rule="nonzero"/></clipPath><clipPath id="b4485da915"><rect x="0" width="79" y="0" height="102"/></clipPath></defs><g clip-path="url(#7c447acac6)"><g mask="url(#955d4d0963)"><g transform="matrix(1, 0, 0, 1, 16, -0.00000000000000358)"><g clip-path="url(#b4485da915)"><g clip-path="url(#34fc78f6f2)"><path fill="#ffffff" d="M 34.015625 101.335938 C 24.582031 100.65625 15.257812 98.28125 9.535156 95.101562 C 6.277344 93.289062 3.796875 91.066406 2.824219 89.082031 L 2.242188 87.902344 L 2.242188 13.859375 L 2.703125 12.929688 C 4.75 8.769531 11.289062 5.019531 20.417969 2.769531 C 23.519531 2.003906 27.992188 1.242188 31.640625 0.859375 C 35.367188 0.46875 45.246094 0.527344 48.964844 0.964844 C 58.84375 2.125 67.25 4.726562 72.433594 8.21875 C 74.429688 9.566406 76.480469 11.722656 77.175781 13.207031 L 77.773438 14.480469 L 77.722656 51.390625 L 77.667969 88.296875 L 77.191406 89.269531 C 76.929688 89.804688 76.132812 90.855469 75.425781 91.605469 C 71.117188 96.171875 61.878906 99.550781 49.757812 100.988281 C 47.285156 101.28125 36.550781 101.519531 34.015625 101.335938 Z M 51.40625 69.613281 C 51.371094 69.519531 49.960938 68.265625 48.269531 66.824219 C 46.582031 65.382812 45.128906 64.132812 45.042969 64.050781 C 44.953125 63.96875 45.265625 63.675781 45.734375 63.398438 C 46.203125 63.125 47.105469 62.359375 47.734375 61.695312 C 49.578125 59.761719 50.449219 57.375 50.449219 54.246094 C 50.449219 51.167969 49.511719 48.679688 47.632812 46.785156 C 45.738281 44.871094 43.5625 44.050781 40.394531 44.050781 C 35.511719 44.050781 31.765625 46.898438 30.566406 51.515625 C 30.15625 53.105469 30.15625 56.316406 30.570312 57.722656 C 31.652344 61.398438 34.589844 64.066406 38.25 64.691406 C 39.484375 64.90625 39.652344 64.996094 40.496094 65.917969 C 41 66.46875 42.027344 67.5625 42.785156 68.351562 L 44.160156 69.785156 L 47.816406 69.785156 C 49.828125 69.785156 51.441406 69.710938 51.40625 69.613281 Z M 38.867188 59.378906 C 37.988281 58.917969 37.65625 58.5625 37.152344 57.542969 C 36.765625 56.753906 36.699219 56.308594 36.695312 54.445312 C 36.691406 52.550781 36.75 52.144531 37.15625 51.320312 C 37.816406 49.976562 38.730469 49.339844 40.140625 49.238281 C 42.105469 49.09375 43.242188 50.058594 43.835938 52.375 C 44.566406 55.21875 43.761719 58.238281 42.015625 59.242188 C 41.097656 59.769531 39.730469 59.828125 38.867188 59.378906 Z M 22.664062 64.652344 C 26.496094 63.925781 28.671875 61.695312 28.671875 58.496094 C 28.671875 55.660156 27.265625 54.003906 23.386719 52.269531 C 21.164062 51.277344 20.359375 50.65625 20.359375 49.929688 C 20.359375 49.324219 21.121094 48.664062 22.011719 48.5 C 22.878906 48.335938 25.183594 48.734375 26.542969 49.285156 L 27.683594 49.746094 L 27.683594 44.699219 L 26.445312 44.425781 C 25.679688 44.253906 24.074219 44.152344 22.238281 44.160156 C 19.636719 44.160156 19.128906 44.222656 18.152344 44.609375 C 15.292969 45.746094 13.9375 47.675781 13.960938 50.585938 C 13.980469 53.304688 15.414062 55.003906 18.988281 56.53125 C 21.097656 57.429688 21.941406 58.117188 21.941406 58.929688 C 21.941406 60.652344 19.070312 60.863281 16.03125 59.363281 C 15.199219 58.953125 14.449219 58.585938 14.367188 58.542969 C 14.289062 58.503906 14.21875 59.683594 14.21875 61.164062 C 14.21875 63.84375 14.222656 63.859375 14.707031 64.042969 C 16.539062 64.738281 20.578125 65.046875 22.664062 64.652344 Z M 66.484375 62.164062 L 66.484375 59.886719 L 59.554688 59.886719 L 59.554688 44.25 L 53.417969 44.25 L 53.417969 64.441406 L 66.484375 64.441406 Z M 45.105469 22.269531 C 51.203125 21.847656 55.773438 21.046875 59.792969 19.703125 C 63.800781 18.363281 66.167969 16.742188 66.699219 14.976562 C 66.902344 14.292969 66.886719 14.035156 66.601562 13.289062 C 65.324219 9.941406 58.183594 7.371094 47.269531 6.328125 C 42.601562 5.882812 34.113281 6.027344 29.664062 6.625 C 22.871094 7.542969 17.359375 9.25 14.910156 11.1875 C 9.953125 15.113281 15.195312 19.433594 27.386719 21.464844 C 32.671875 22.34375 39.519531 22.65625 45.105469 22.269531 Z M 45.105469 22.269531 " fill-opacity="1" fill-rule="nonzero"/></g></g></g></g></g></svg>